<svg width="729" height="355" viewBox="0 0 729 355" fill="none" xmlns="http://www.w3.org/2000/svg">
<g clip-path="url(#clip0_345_46)">
<mask id="mask0_345_46" style="mask-type:luminance" maskUnits="userSpaceOnUse" x="0" y="0" width="729" height="355">
<path d="M0 -3.05176e-05H729V354.514H0V-3.05176e-05Z" fill="white"/>
</mask>
<g mask="url(#mask0_345_46)">
<path d="M54.1638 170.159C51.6365 170.159 49.4453 167.97 49.4453 165.442V157.352C49.4453 154.658 51.6365 152.637 54.1638 152.637H127.28C129.978 152.637 132 154.658 132 157.352V165.442C132 167.97 129.978 170.159 127.28 170.159H102.516C100.83 170.159 99.9885 171.001 99.9885 172.688V267.539C99.9885 270.068 97.9663 272.259 95.2741 272.259H86.1774C83.6484 272.259 81.4572 270.068 81.4572 267.539V172.688C81.4572 171.001 80.6117 170.159 78.929 170.159H54.1638Z" fill="#420D74"/>
</g>
<mask id="mask1_345_46" style="mask-type:luminance" maskUnits="userSpaceOnUse" x="0" y="0" width="729" height="355">
<path d="M0 -3.05176e-05H729V354.514H0V-3.05176e-05Z" fill="white"/>
</mask>
<g mask="url(#mask1_345_46)">
<path d="M127.95 272.258C125.423 272.258 123.232 270.067 123.232 267.538V202.003C123.232 199.305 125.423 197.284 127.95 197.284H134.185C136.711 197.284 138.566 198.972 138.731 201.498L138.898 204.024C138.898 205.204 140.584 205.877 141.766 204.361C146.988 197.79 151.705 194.755 159.287 194.755C167.037 194.755 173.103 198.972 177.481 207.226C178.831 210.09 178.156 211.943 175.462 213.12L168.214 215.817C165.86 216.829 163.833 216.155 161.983 213.966C159.964 211.436 157.261 210.09 154.064 210.09C149.179 210.09 144.799 213.966 140.922 221.885C140.416 222.725 140.078 223.737 140.078 224.914V267.538C140.078 270.067 138.061 272.258 135.367 272.258H127.95Z" fill="#420D74"/>
</g>
<mask id="mask2_345_46" style="mask-type:luminance" maskUnits="userSpaceOnUse" x="0" y="0" width="729" height="355">
<path d="M0 -3.05176e-05H729V354.514H0V-3.05176e-05Z" fill="white"/>
</mask>
<g mask="url(#mask2_345_46)">
<path d="M193.832 266.024C187.935 260.125 184.902 252.546 184.902 243.114V202.003C184.902 199.305 186.925 197.284 189.617 197.284H197.029C199.559 197.284 201.753 199.305 201.753 202.003V243.445C201.753 252.377 207.646 258.274 216.408 258.274C225.168 258.274 231.234 252.377 231.234 243.445V202.003C231.234 199.305 233.257 197.284 235.951 197.284H243.362C245.891 197.284 248.081 199.305 248.081 202.003V243.114C248.081 252.546 245.049 260.125 239.149 266.024C233.257 271.919 225.675 274.786 216.408 274.786C207.312 274.786 199.725 271.919 193.832 266.024Z" fill="#420D74"/>
</g>
<mask id="mask3_345_46" style="mask-type:luminance" maskUnits="userSpaceOnUse" x="0" y="0" width="729" height="355">
<path d="M0 -3.05176e-05H729V354.514H0V-3.05176e-05Z" fill="white"/>
</mask>
<g mask="url(#mask3_345_46)">
<path d="M279.424 225.083H318.344C319.695 225.083 320.199 224.41 319.695 223.063C315.986 213.796 309.073 209.247 298.968 209.247C289.026 209.247 281.951 213.796 278.077 223.063C277.569 223.903 278.245 225.083 279.424 225.083ZM332.831 237.549H277.909C276.73 237.549 276.222 238.225 276.392 239.575C277.237 244.965 279.761 249.514 283.975 253.386C288.351 257.092 293.576 258.945 299.476 258.945C306.888 258.945 312.949 256.082 317.838 250.524C319.859 248.165 322.386 247.66 325.418 249.173L330.137 251.367C333.34 252.88 334.013 256.082 331.991 258.274C324.07 269.223 313.12 274.786 299.476 274.786C288.185 274.786 278.582 270.911 270.668 263.16C262.914 255.408 259.039 245.975 259.039 234.686C259.039 223.398 262.914 213.966 270.495 206.384C278.245 198.632 287.681 194.756 298.968 194.756C310.258 194.756 319.523 198.463 326.934 205.877C334.516 213.29 338.219 222.222 338.219 232.666C338.219 235.529 336.034 237.549 332.831 237.549Z" fill="#420D74"/>
</g>
<mask id="mask4_345_46" style="mask-type:luminance" maskUnits="userSpaceOnUse" x="0" y="0" width="729" height="355">
<path d="M0 -3.05176e-05H729V354.514H0V-3.05176e-05Z" fill="white"/>
</mask>
<g mask="url(#mask4_345_46)">
<path d="M355.969 272.258C353.446 272.258 351.252 270.067 351.252 267.538V157.353C351.252 154.659 353.446 152.637 355.969 152.637H365.066C367.766 152.637 369.786 154.659 369.786 157.353V252.205C369.786 253.556 370.966 254.733 372.311 254.733H415.61C418.307 254.733 420.329 256.759 420.329 259.452V267.538C420.329 270.067 418.307 272.258 415.61 272.258H355.969Z" fill="#420D74"/>
</g>
<mask id="mask5_345_46" style="mask-type:luminance" maskUnits="userSpaceOnUse" x="0" y="0" width="729" height="355">
<path d="M0 -3.05176e-05H729V354.514H0V-3.05176e-05Z" fill="white"/>
</mask>
<g mask="url(#mask5_345_46)">
<path d="M441.1 225.083H480.018C481.369 225.083 481.873 224.41 481.369 223.063C477.661 213.796 470.751 209.247 460.644 209.247C450.704 209.247 443.625 213.796 439.752 223.063C439.245 223.903 439.918 225.083 441.1 225.083ZM494.51 237.549H439.582C438.403 237.549 437.896 238.225 438.065 239.575C438.908 244.965 441.438 249.514 445.649 253.386C450.028 257.092 455.254 258.945 461.15 258.945C468.562 258.945 474.623 256.082 479.512 250.524C481.536 248.165 484.062 247.66 487.097 249.173L491.812 251.367C495.013 252.88 495.69 256.082 493.668 258.274C485.743 269.223 474.797 274.786 461.15 274.786C449.858 274.786 440.255 270.911 432.337 263.16C424.592 255.408 420.711 245.975 420.711 234.686C420.711 223.398 424.592 213.966 432.17 206.384C439.918 198.632 449.353 194.756 460.644 194.756C471.933 194.756 481.2 198.463 488.611 205.877C496.192 213.29 499.897 222.222 499.897 232.666C499.897 235.529 497.708 237.549 494.51 237.549Z" fill="#420D74"/>
</g>
<mask id="mask6_345_46" style="mask-type:luminance" maskUnits="userSpaceOnUse" x="0" y="0" width="729" height="355">
<path d="M0 -3.05176e-05H729V354.514H0V-3.05176e-05Z" fill="white"/>
</mask>
<g mask="url(#mask6_345_46)">
<path d="M530.232 217.838C525.683 222.389 523.493 228.117 523.493 234.686C523.493 241.258 525.683 246.987 530.232 251.533C534.783 256.082 540.511 258.439 547.082 258.439C553.653 258.439 559.207 256.082 563.759 251.533C568.307 246.987 570.67 241.258 570.67 234.686C570.67 228.117 568.307 222.389 563.759 217.838C559.207 213.29 553.653 210.931 547.082 210.931C540.511 210.931 534.783 213.29 530.232 217.838ZM517.598 263.159C510.352 255.408 506.645 245.975 506.645 234.686C506.645 223.398 510.352 213.966 517.598 206.384C524.84 198.632 533.938 194.756 544.554 194.756C554.995 194.756 563.084 198.632 568.982 206.551C570.16 207.9 571.675 207.562 571.845 206.045L572.012 200.991C572.182 198.801 574.376 197.285 576.565 197.285H582.798C585.323 197.285 587.519 199.305 587.519 202.003V267.538C587.519 270.067 585.323 272.259 582.798 272.259H576.565C574.036 272.259 572.519 270.909 572.012 268.383L571.845 263.327C571.675 261.811 570.16 261.474 568.982 262.992C563.084 270.909 554.829 274.786 544.554 274.786C533.938 274.786 524.84 270.909 517.598 263.159Z" fill="#420D74"/>
</g>
<mask id="mask7_345_46" style="mask-type:luminance" maskUnits="userSpaceOnUse" x="0" y="0" width="729" height="355">
<path d="M0 -3.05176e-05H729V354.514H0V-3.05176e-05Z" fill="white"/>
</mask>
<g mask="url(#mask7_345_46)">
<path d="M622.272 217.838C617.722 222.389 615.535 228.117 615.535 234.686C615.535 241.258 617.722 246.987 622.272 251.533C626.824 256.082 632.549 258.439 639.121 258.439C645.692 258.439 651.248 256.082 655.8 251.533C660.351 246.987 662.707 241.258 662.707 234.686C662.707 228.117 660.351 222.389 655.8 217.838C651.248 213.29 645.692 210.931 639.121 210.931C632.549 210.931 626.824 213.29 622.272 217.838ZM668.604 206.384C675.853 213.966 679.557 223.398 679.557 234.686C679.557 245.975 675.853 255.408 668.604 263.159C661.359 270.909 652.265 274.786 641.648 274.786C632.549 274.786 624.97 271.583 618.735 265.011C617.388 263.834 615.535 264.508 615.535 266.36V304.603C615.535 307.301 613.343 309.324 610.815 309.324H603.403C600.708 309.324 598.684 307.301 598.684 304.603V202.003C598.684 199.305 600.708 197.285 603.403 197.285H609.472C612.164 197.285 613.679 198.463 614.018 200.991L614.185 206.045C614.351 207.562 616.041 207.9 617.217 206.551C623.116 198.632 631.37 194.756 641.648 194.756C652.265 194.756 661.359 198.632 668.604 206.384Z" fill="#420D74"/>
</g>
<mask id="mask8_345_46" style="mask-type:luminance" maskUnits="userSpaceOnUse" x="0" y="0" width="729" height="355">
<path d="M0 -3.05176e-05H729V354.514H0V-3.05176e-05Z" fill="window"/>
</mask>
<g mask="url(#mask8_345_46)">
<path d="M658.315 102.839C665.71 104.193 677.23 98.3486 678.678 84.6957C680.064 71.6286 668.287 64.684 662.196 63.0212C427.574 25.8164 228.755 130.2 146.965 182.292L148.554 185.095C192.311 158.35 271.921 119.882 392.434 101.85C530.525 81.1871 618.014 95.3136 658.118 102.822C658.184 102.832 658.242 102.825 658.315 102.839Z" fill="#0ABD74"/>
</g>
</g>
<defs>
<clipPath id="clip0_345_46">
<rect width="729" height="354.514" fill="white"/>
</clipPath>
</defs>
</svg>
